# AST/ASF file generated using VICON BodyLanguage
# -----------------------------------------------
:version 1.10
:name VICON
:units
  mass 1.0
  length 0.45
  angle deg
:documentation
   .ast/.asf automatically generated from VICON data using
   VICON BodyBuilder and BodyLanguage model FoxedUp or BRILLIANT.MOD
:root
   order TX TY TZ RX RY RZ
   axis XYZ
   position 0 0 0  
   orientation 0 0 0 
:bonedata
  begin
     id 1 
     name lhipjoint
     direction 0.78388 -0.462562 0.414208 
     length 3.01181 
     axis 0 0 0  XYZ
  end
  begin
     id 2 
     name lfemur
     direction 0.34202 -0.939693 0  
     length 6.04673  
     axis 0 0 20  XYZ
    dof rx ry rz
    limits (-160.0 20.0)
           (-70.0 70.0)
           (-60.0 70.0)
  end
  begin
     id 3 
     name ltibia
     direction 0.34202 -0.939693 0   
     length 7.211   
     axis 0 0 20   XYZ
    dof rx
    limits (-10.0 170.0)
  end
  begin
     id 4 
     name lfoot
     direction 0.121887 -0.334882 0.934344   
     length 2.13567   
     axis -90 7.62852e-016 20   XYZ
    dof rx rz
    limits (-45.0 90.0)
           (-70.0 20.0)
  end
  begin
     id 5 
     name ltoes
     direction 1.53555e-011 -4.2179e-011 1   
     length 1.05957   
     axis -90 7.62852e-016 20   XYZ
    dof rx
    limits (-90.0 20.0)
  end
  begin
     id 6 
     name rhipjoint
     direction -0.769387 -0.475875 0.426129   
     length 2.92756  
     axis 0 0 0  XYZ 
  end
  begin
     id 7 
     name rfemur
     direction -0.34202 -0.939693 0   
     length 6.35468   
     axis 0 0 -20   XYZ
    dof rx ry rz
    limits (-160.0 20.0)
           (-70.0 70.0)
           (-70.0 60.0)
  end
  begin
     id 8 
     name rtibia
     direction -0.34202 -0.939693 0   
     length 7.37886   
     axis 0 0 -20   XYZ
    dof rx
    limits (-10.0 170.0)
 end
 begin
     id 9 
     name rfoot
     direction -0.101763 -0.279592 0.954711   
     length 2.21478  
     axis -90 -7.62852e-016 -20   XYZ
    dof rx rz
    limits (-45.0 90.0)
           (-20.0 70.0)
  end
  begin
     id 10 
     name rtoes
     direction -1.53494e-011 -4.21851e-011 1   
     length 1.10506   
     axis -90 -7.62852e-016 -20   XYZ
    dof rx
    limits (-90.0 20.0)
  end
  begin
     id 11 
     name lowerback
     direction 0.00747405 0.999267 0.0375481   
     length 2.13259   
     axis 0 0 0   XYZ
    dof rx ry rz
    limits (-20.0 45.0)
           (-30.0 30.0)
           (-30.0 30.0)
  end
  begin
     id 12 
     name upperback
     direction 0.00661626 0.996177 0.0871029   
     length 2.10528   
     axis 0 0 0   XYZ
    dof rx ry rz
    limits (-20.0 45.0)
           (-30.0 30.0)
           (-30.0 30.0)
  end
  begin
     id 13 
     name thorax
     direction 0.00320659 0.997679 0.0680167   
     length 2.11338   
     axis 0 0 0   XYZ
    dof rx ry rz
    limits (-20.0 45.0)
           (-30.0 30.0)
           (-30.0 30.0)
  end
  begin
     id 14 
     name lowerneck
     direction 0.0374841 0.973033 0.227602   
     length 1.42765   
     axis 0 0 0   XYZ
    dof rx ry rz
    limits (-20.0 45.0)
           (-30.0 30.0)
           (-30.0 30.0)
  end
  begin
     id 15 
     name upperneck
     direction 0.00481585 0.989155 -0.146795   
     length 1.47593   
     axis 0 0 0   XYZ
    dof rx ry rz
    limits (-20.0 45.0)
           (-30.0 30.0)
           (-30.0 30.0)
  end
  begin
     id 16
     name head
     direction -0.00292522 0.997206 -0.0746423  
     length 1.48116  
     axis 0 0 0   XYZ
    dof rx ry rz
    limits (-20.0 45.0)
           (-30.0 30.0)
           (-30.0 30.0)
  end
  begin
     id 17 
     name lclavicle
     direction 0.951444 0.305606 0.0368784  
     length 3.01855  
     axis 0 0 0   XYZ
    dof ry rz
    limits (-20.0 10.0)
           (0.0 20.0)
  end
  begin
     id 18 
     name lhumerus
     direction 1 -4.48977e-011 2.61664e-027   
     length 5.52731   
     axis 180 -30 -90   XYZ
    dof rx ry rz
    limits (-60.0 90.0)
           (-90.0 90.0)
           (-90.0 90.0)
  end
  begin
     id 19
     name lradius
     direction 1 -4.48944e-011 8.22157e-027   
     length 3.11059   
     axis 180 -30 -90   XYZ
    dof rx
    limits (-10.0 170.0)
  end
  begin
     id 20
     name lwrist
     direction 1 -4.48976e-011 1.5779e-026   
     length 1.5553   
     axis -1.15221e-014 90 90   XYZ
    dof ry
    limits (-180.0 0.0)
 end
  begin
     id 21 
     name lhand
     direction 1 -4.49025e-011 3.1558e-026   
     length 0.419626   
     axis -2.01367e-014 90 90   XYZ
    dof rx rz
    limits (-90.0 90.0)
           (-45.0 45.0)
  end
  begin
     id 22 
     name lfingers
     direction 1 -4.4904e-011 6.31161e-026   
     length 0.338313   
     axis -4.02734e-014 90 90   XYZ
    dof rx
    limits (0.0 90.0)
  end
  begin
     id 23
     name lthumb
     direction 0.707107 -6.35004e-011 0.707107   
     length 0.485752   
     axis -90 45 2.85299e-015   XYZ
    dof rx rz
    limits (-45.0 45.0)
           (-45.0 45.0)
  end
  begin
     id 24 
     name rclavicle
     direction -0.968876 0.223791 0.105816   
     length 3.04177  
     axis 0 0 0   XYZ 
    dof ry rz
    limits (-10.0 20.0)
           (-20.0 0.0)
  end
  begin
     id 25 
     name rhumerus
     direction -1 -4.48962e-011 -1.01384e-027  
     length 5.25396   
     axis 180 30 90   XYZ
    dof rx ry rz
    limits (-90.0 60.0)
           (-90.0 90.0)
           (-90.0 90.0)
  end
  begin
     id 26 
     name rradius
     direction -1 -4.48955e-011 8.88542e-027   
     length 3.10567   
     axis 180 30 90   XYZ
    dof rx
    limits (-10.0 170.0)
  end
  begin
     id 27 
     name rwrist
     direction -1 -4.48994e-011 1.5779e-026   
     length 1.55283   
     axis -1.15221e-014 -90 -90   XYZ
    dof ry
    limits (-180.0 0.0)
  end
  begin
     id 28
     name rhand
     direction -1 -4.48891e-011 3.1558e-026   
     length 0.498676   
     axis -2.01367e-014 -90 -90   XYZ
    dof rx rz
    limits (-90.0 90.0)
           (-45.0 45.0)
  end
  begin
     id 29
     name rfingers
     direction -1 -4.48972e-011 6.31161e-026   
     length 0.402045   
     axis -4.02734e-014 -90 -90   XYZ
    dof rx
    limits (0.0 90.0)
  end
  begin
     id 30
     name rthumb
     direction -0.707107 -6.34849e-011 0.707107   
     length 0.577259   
     axis -90 -45 -2.85299e-015   XYZ
    dof rx rz
    limits (-45.0 45.0)
           (-45.0 45.0)
  end
:hierarchy
  begin
    root lhipjoint rhipjoint lowerback
    lhipjoint lfemur
    lfemur ltibia
    ltibia lfoot
    lfoot ltoes
    rhipjoint rfemur
    rfemur rtibia
    rtibia rfoot
    rfoot rtoes
    lowerback upperback
    upperback thorax
    thorax lowerneck lclavicle rclavicle
    lowerneck upperneck
    upperneck head
    lclavicle lhumerus
    lhumerus lradius
    lradius lwrist
    lwrist lhand lthumb
    lhand lfingers
    rclavicle rhumerus
    rhumerus rradius
    rradius rwrist
    rwrist rhand rthumb
    rhand rfingers
  end

#!OML:ASF H:\Pregnant\Project 1\Capture day 1\Session 1\femalepreg.ASF
:FULLY-SPECIFIED
:DEGREES
1
root 1.76388 2.56967 16.2134 -72.2611 -3.65986 112.927
lowerback -3.45794 -0.252891 -1.04456
upperback -7.12297 -0.48427 1.00431
thorax -5.42189 -0.248275 1.64151
lowerneck -14.8467 9.22581 17.6322
upperneck 21.7257 15.0762 -24.6281
head 13.3528 5.84342 -10.2569
rclavicle 1.43125e-013 9.62118e-014
rhumerus 106.265 27.9307 -78.7068
rradius 133.917
rwrist -37.7712
rhand -7.0324 -18.7192
rfingers 7.12502
rthumb 18.8397 -47.8269
lclavicle 1.43125e-013 9.62118e-014
lhumerus 7.71905 -34.5505 98.9226
lradius 124.524
lwrist 27.1233
lhand -48.8073 -25.5057
lfingers 7.12502
lthumb -21.4439 3.32746
rfemur -71.5031 7.89798 31.2012
rtibia 139.238
rfoot -10.7143 -11.6954
rtoes 10.6745
lfemur -59.5761 8.22197 -39.0044
ltibia 73.9911
lfoot 12.9355 -3.04792
ltoes 4.62832
2
root 1.76099 2.56858 16.2115 -72.263 -3.63245 112.974
lowerback -3.41681 -0.320575 -1.16387
upperback -7.13986 -0.572417 1.0472
thorax -5.45922 -0.283769 1.75463
lowerneck -14.7784 9.40336 17.9119
upperneck 21.7878 15.3826 -24.8794
head 13.5164 5.99258 -10.3768
rclavicle 1.59028e-014 2.04748e-014
rhumerus 107.05 28.3867 -78.8176
rradius 134.182
rwrist -37.6219
rhand -6.58373 -19.3432
rfingers 7.12502
rthumb 19.2711 -48.4084
lclavicle 1.59028e-014 2.04748e-014
lhumerus 8.78974 -33.9957 99.047
lradius 124.611
lwrist 27.0537
lhand -47.8027 -22.7972
lfingers 7.12502
lthumb -20.4788 6.14277
rfemur -71.4873 7.88214 31.1912
rtibia 139.227
rfoot -10.7622 -11.7221
rtoes 10.8509
lfemur -59.5743 8.28152 -39.0744
ltibia 73.9259
lfoot 12.9972 -2.7868
ltoes 3.74889
3
root 1.75739 2.56718 16.2104 -72.2627 -3.60138 113.042
lowerback -3.38961 -0.347904 -1.25919
upperback -7.1292 -0.607256 1.06818
thorax -5.46137 -0.294888 1.83044
lowerneck -14.9563 9.57549 18.1133
upperneck 21.8205 15.5985 -24.9072
head 13.6579 6.09766 -10.3839
rclavicle -5.725e-014 -6.30147e-014
rhumerus 107.084 28.5085 -78.8625
rradius 134.205
rwrist -37.5843
rhand -6.01943 -19.0016
rfingers 7.12502
rthumb 19.8137 -48.0117
lclavicle -5.725e-014 -6.30147e-014
lhumerus 9.86007 -33.6557 99.1744
lradius 124.699
lwrist 26.6001
lhand -47.1822 -20.4235
lfingers 7.12502
lthumb -19.8824 8.5795
rfemur -71.4752 7.90205 31.1763
rtibia 139.226
rfoot -10.8241 -11.744
rtoes 11.0296
lfemur -59.5645 8.35252 -39.148
ltibia 73.8584
lfoot 13.0336 -2.52959
ltoes 2.98145
4
root 1.75371 2.56618 16.209 -72.2293 -3.55738 113.12
lowerback -3.42829 -0.332374 -1.37573
upperback -7.17585 -0.591608 1.01695
thorax -5.48962 -0.283527 1.84256
lowerneck -14.8213 9.56186 18.247
upperneck 21.7271 15.4497 -24.581
head 13.5093 6.08723 -10.2722
rclavicle -9.54166e-015 -5.36719e-015
rhumerus 106.841 28.3795 -79.1363
rradius 134.217
rwrist -37.6974
rhand -5.50855 -18.5845
rfingers 7.12502
rthumb 20.3047 -47.5431
lclavicle -9.54166e-015 -5.36719e-015
lhumerus 10.6988 -33.4095 99.3905
lradius 124.774
lwrist 26.4663
lhand -46.3253 -19.1992
lfingers 7.12502
lthumb -19.0586 9.88705
rfemur -71.4978 7.90873 31.1266
rtibia 139.268
rfoot -10.873 -11.7635
rtoes 11.2168
lfemur -59.5941 8.41404 -39.2403
ltibia 73.7927
lfoot 13.0744 -2.24329
ltoes 2.34205
5
root 1.74999 2.56509 16.2069 -72.2123 -3.53018 113.191
lowerback -3.4323 -0.341165 -1.46807
upperback -7.20095 -0.605413 1.00054
thorax -5.51326 -0.286238 1.87774
lowerneck -14.7371 9.63343 18.5189
upperneck 21.6385 15.5027 -24.6235
head 13.5023 6.14329 -10.3252
rclavicle 1.27222e-014 -5.36719e-015
rhumerus 106.81 28.4084 -79.3191
rradius 134.261
rwrist -37.7273
rhand -4.97067 -18.3534
rfingers 7.12502
rthumb 20.8216 -47.2562
lclavicle 1.27222e-014 -5.36719e-015
lhumerus 11.5936 -33.1102 99.5797
lradius 124.857
lwrist 26.1082
lhand -45.4906 -17.5875
lfingers 7.12502
lthumb -18.2557 11.5758
rfemur -71.4922 7.90722 31.0955
rtibia 139.292
rfoot -10.924 -11.7783
rtoes 11.3979
lfemur -59.612 8.48701 -39.3155
ltibia 73.7323
lfoot 13.106 -1.96862
ltoes 1.62026
6
root 1.746 2.56409 16.2044 -72.1931 -3.5102 113.266
lowerback -3.44134 -0.345875 -1.54334
upperback -7.22298 -0.61396 0.97775
thorax -5.53112 -0.287493 1.89656
lowerneck -14.6345 9.69116 18.8126
upperneck 21.5081 15.5364 -24.712
head 13.4774 6.18999 -10.405
rclavicle -1.04958e-013 -3.71727e-014
rhumerus 106.722 28.4034 -79.511
rradius 134.288
rwrist -37.774
rhand -4.41839 -18.0776
rfingers 7.12502
rthumb 21.3521 -46.9212
lclavicle -1.04958e-013 -3.71727e-014
lhumerus 12.4485 -32.8421 99.769
lradius 124.932
lwrist 25.6627
lhand -44.627 -16.2352
lfingers 7.12502
lthumb -17.4247 13.0038
rfemur -71.4826 7.90169 31.0643
rtibia 139.312
rfoot -10.9748 -11.7866
rtoes 11.5773
lfemur -59.6377 8.56596 -39.387
ltibia 73.678
lfoot 13.1221 -1.69056
ltoes 0.910208
7
root 1.7418 2.56321 16.2015 -72.1707 -3.49994 113.342
lowerback -3.45426 -0.348404 -1.59574
upperback -7.24047 -0.619732 0.946111
thorax -5.54221 -0.288894 1.89321
lowerneck -14.528 9.73487 19.1124
upperneck 21.3476 15.5476 -24.8218
head 13.4364 6.22535 -10.4981
rclavicle 3.18055e-014 6.36111e-015
rhumerus 106.638 28.3807 -79.722
rradius 134.322
rwrist -37.8324
rhand -3.86724 -17.8271
rfingers 7.12502
rthumb 21.8814 -46.6098
lclavicle 3.18055e-014 6.36111e-015
lhumerus 13.2675 -32.601 99.9477
lradius 124.99
lwrist 25.1379
lhand -43.6956 -15.1468
lfingers 7.12502
lthumb -16.5282 14.1693
rfemur -71.4735 7.895 31.0377
rtibia 139.32
rfoot -11.0227 -11.7912
rtoes 11.7557
lfemur -59.674 8.64927 -39.4532
ltibia 73.6313
lfoot 13.1249 -1.40593
ltoes 0.229066
